<?xml version="1.0" encoding="UTF-8"?>
<svg width="39px" height="50px" viewBox="0 0 39 50" version="1.1" xmlns="http://www.w3.org/2000/svg" xmlns:xlink="http://www.w3.org/1999/xlink">
    <!-- Generator: Sketch 52.5 (67469) - http://www.bohemiancoding.com/sketch -->
    <title>pdf</title>
    <desc>Created with Sketch.</desc>
    <g id="Page-1" stroke="none" stroke-width="1" fill="none" fill-rule="evenodd">
        <g id="pdf" fill="#000000">
            <path d="M21.9888245,34.4460227 C21.6266556,34.1264205 21.2127483,33.9133523 20.7471026,33.7535511 C20.281457,33.647017 19.7640728,33.59375 19.1432119,33.59375 L16.763245,33.59375 C16.3493377,33.59375 16.0906457,33.7002841 15.8836921,33.8600852 C15.7284768,34.0198864 15.625,34.3394886 15.625,34.765625 L15.625,41.6370739 C15.625,41.9566761 15.625,42.1697443 15.7284768,42.3828125 C15.7802152,42.5958807 15.8836921,42.7024148 16.0389073,42.8089489 C16.1941225,42.915483 16.4528146,42.96875 16.8149834,42.96875 L19.1949503,42.96875 C19.6088576,42.96875 19.9710265,42.915483 20.3331954,42.8622159 C20.6436258,42.8089489 20.9540563,42.7024148 21.2644868,42.5958807 C21.5749172,42.4360795 21.8336093,42.2762784 22.0405629,42.0632102 C22.3509934,41.743608 22.6096854,41.4240057 22.8166391,41.0511364 C23.0235927,40.678267 23.1788079,40.2521307 23.2822848,39.7727273 C23.3857616,39.2933239 23.4375,38.8139205 23.4375,38.227983 C23.4375,36.5767045 22.9718543,35.2982955 21.9888245,34.4460227 Z M20.6436258,41.0511364 C20.4884106,41.1576705 20.3331954,41.2642045 20.1779801,41.3174716 C19.9710265,41.3707386 19.8158113,41.4240057 19.660596,41.4240057 C19.5053808,41.4240057 19.2466887,41.4240057 18.9362583,41.4240057 L17.5393212,41.4240057 L17.5393212,35.0319602 L18.781043,35.0319602 C19.3501656,35.0319602 19.8158113,35.0852273 20.2297185,35.2450284 C20.6436258,35.3515625 20.9540563,35.6711648 21.2127483,36.1505682 C21.4714404,36.6299716 21.6266556,37.3224432 21.6266556,38.227983 C21.5749172,39.6129261 21.2644868,40.5184659 20.6436258,41.0511364 Z" id="Shape" fill-rule="nonzero"></path>
            <path d="M13.1770833,34.2746159 C12.9166667,34.0127444 12.6041667,33.8556215 12.1875,33.7508729 C11.8229167,33.6461243 11.25,33.59375 10.5729167,33.59375 L8.17708333,33.59375 C7.76041667,33.59375 7.44791667,33.6984986 7.29166667,33.8556215 C7.08333333,34.0127444 7.03125,34.3269902 7.03125,34.7459846 L7.03125,41.8688897 C7.03125,42.2355098 7.13541667,42.4973813 7.29166667,42.7068785 C7.44791667,42.9163757 7.70833333,42.96875 7.96875,42.96875 C8.22916667,42.96875 8.4375,42.8640014 8.64583333,42.6545042 C8.80208333,42.445007 8.90625,42.1831355 8.90625,41.8165154 L8.90625,39.1978003 L10.625,39.1978003 C11.7708333,39.1978003 12.6041667,38.9359288 13.1770833,38.4645601 C13.75,37.9931913 14.0625,37.2599511 14.0625,36.3172137 C14.0625,35.8982193 14.0104167,35.4792249 13.8541667,35.1126047 C13.6458333,34.7983589 13.4375,34.4841131 13.1770833,34.2746159 Z M11.9270833,37.2075768 C11.7708333,37.417074 11.5625,37.5741969 11.25,37.6789455 C10.9375,37.7836941 10.5729167,37.8360684 10.15625,37.8360684 L8.90625,37.8360684 L8.90625,35.0078561 L10.15625,35.0078561 C10.9895833,35.0078561 11.5104167,35.1649791 11.8229167,35.4268506 C12.0833333,35.6887221 12.1875,36.0029679 12.1875,36.4219623 C12.1354167,36.7362081 12.0833333,36.9980796 11.9270833,37.2075768 Z" id="Shape" fill-rule="nonzero"></path>
            <path d="M26.1178862,33.59375 C25.8130081,33.6458333 25.6097561,33.6979167 25.4573171,33.8020833 C25.304878,33.8541667 25.152439,34.0104167 25.101626,34.1666667 C25,34.3229167 25,34.53125 25,34.84375 L25,41.875 C25,42.2395833 25.101626,42.5520833 25.254065,42.7083333 C25.4065041,42.9166667 25.6605691,42.96875 25.9146341,42.96875 C26.1686992,42.96875 26.3719512,42.8645833 26.5752033,42.7083333 C26.7276423,42.5 26.8292683,42.2395833 26.8292683,41.875 L26.8292683,38.8541667 L29.8272358,38.8541667 C30.0813008,38.8541667 30.2845528,38.8020833 30.4369919,38.6458333 C30.5894309,38.5416667 30.6402439,38.3333333 30.6402439,38.125 C30.6402439,37.9166667 30.5894309,37.7604167 30.4369919,37.6041667 C30.2845528,37.5 30.0813008,37.3958333 29.8272358,37.3958333 L26.8292683,37.3958333 L26.8292683,35.0520833 L30.3861789,35.0520833 C30.6910569,35.0520833 30.8943089,35 31.046748,34.84375 C31.199187,34.6875 31.25,34.53125 31.25,34.3229167 C31.25,34.1145833 31.199187,33.9583333 31.046748,33.8020833 C30.8943089,33.6458333 30.6910569,33.59375 30.3861789,33.59375 L26.1178862,33.59375 Z" id="Path"></path>
            <path d="M38.1784815,9.97973658 L38.1270973,9.92907801 L38.1270973,9.87841945 L28.364094,0.253292806 L28.3127097,0.202634245 C28.3127097,0.202634245 28.2613255,0.202634245 28.2613255,0.151975684 C28.2613255,0.151975684 28.2099413,0.151975684 28.2099413,0.101317123 C28.0557886,0 27.9016359,0 27.696099,0 L3.49412752,0 C2.56921141,0 1.69567953,0.354609929 1.07906879,0.962512665 L1.02768456,1.01317123 C0.411073826,1.62107396 0,2.53292806 0,3.44478217 L0,46.5552178 C0,47.5177305 0.411073826,48.378926 1.02768456,48.9868288 C1.6442953,49.5947315 2.56921141,50 3.49412752,50 L34.7871225,50 C35.7634228,50 36.6369547,49.5947315 37.2535654,48.9868288 C37.8701762,48.378926 38.28125,47.4670719 38.28125,46.5552178 L38.28125,10.4863222 C38.28125,10.2836879 38.2298658,10.1317123 38.1784815,9.97973658 Z M28.6723993,3.64741641 L34.4788171,9.37183384 L30.2139262,9.37183384 C29.8028523,9.37183384 29.3917785,9.21985816 29.1348574,8.91590679 C28.8779362,8.66261398 28.6723993,8.25734549 28.6723993,7.852077 L28.6723993,3.64741641 Z M36.0717282,46.5552178 C36.0717282,46.9098278 35.9175755,47.2137791 35.6606544,47.4670719 C35.4037332,47.7203647 35.0954279,47.8723404 34.7357383,47.8723404 L3.49412752,47.8723404 C3.13443792,47.8723404 2.82613255,47.7203647 2.56921141,47.5177305 C2.31229027,47.2644377 2.20952181,46.9604863 2.20952181,46.6058764 L2.20952181,3.39412361 C2.20952181,3.03951368 2.3636745,2.73556231 2.62059564,2.4822695 L2.67197987,2.43161094 C2.92890101,2.2289767 3.23720638,2.07700101 3.54551174,2.07700101 L26.565646,2.07700101 L26.565646,7.80141844 C26.565646,8.81458967 26.9767198,9.72644377 27.696099,10.4356636 C28.364094,11.0942249 29.3403943,11.4994934 30.3680789,11.4994934 L36.0717282,11.4994934 L36.0717282,46.5552178 Z" id="Shape" fill-rule="nonzero"></path>
            <polygon id="Path" points="21.1360696 13.28125 16.3647514 13.28125 16.3647514 21.8884153 10.9375 21.8884153 18.7504105 31.25 26.5625 21.8884153 21.1360696 21.8884153"></polygon>
        </g>
    </g>
</svg>